<svg xmlns="http://www.w3.org/2000/svg" version="1.1" xmlnsXlink="http://www.w3.org/1999/xlink" xmlnsSvgjs="http://svgjs.dev/svgjs" width="1500" height="363" viewBox="0 0 1500 363"><g transform="matrix(1,0,0,1,-0.9090909090909918,0.10152189415174462)"><svg viewBox="0 0 396 96" data-background-color="#ffffff" preserveAspectRatio="xMidYMid meet" height="363" width="1500" xmlns="http://www.w3.org/2000/svg" xmlnsXlink="http://www.w3.org/1999/xlink"><g id="tight-bounds" transform="matrix(1,0,0,1,0.2400000000000091,-0.026848765395499186)"><svg viewBox="0 0 395.52 96.05369753079101" height="96.05369753079101" width="395.52"><g><svg viewBox="0 0 561.9162038021996 136.46371631691648" height="96.05369753079101" width="395.52"><g transform="matrix(1,0,0,1,166.39620380219952,42.169269098695736)"><svg viewBox="0 0 395.52 52.12517811952501" height="52.12517811952501" width="395.52"><g id="textblocktransform"><svg viewBox="0 0 395.52 52.12517811952501" height="52.12517811952501" width="395.52" id="textblock"><g><svg viewBox="0 0 395.52 52.12517811952501" height="52.12517811952501" width="395.52"><g transform="matrix(1,0,0,1,0,0)"><svg width="395.52" viewBox="4.2 -32.64 250.8 33.06" height="52.12517811952501" data-palette-color="#000000"><path d="M5.96 0.07Q4.2 0.07 4.2-0.88L4.2-0.88 4.2-29.08Q4.2-29.76 4.52-30.07 4.83-30.37 5.52-30.37L5.52-30.37 12.82-30.37Q18.02-30.37 20.64-28.54 23.27-26.71 23.27-22.71L23.27-22.71Q23.27-20 21.96-18.15 20.65-16.31 18.29-15.38L18.29-15.38 18.29-15.21Q19.56-14.77 20.37-13.51 21.19-12.26 22.19-9.79L22.19-9.79 25.59-1.22Q25.71-0.78 25.71-0.61L25.71-0.61Q25.71 0.07 23.88 0.07L23.88 0.07 23.44 0.07Q22.78 0.07 22.3-0.11 21.83-0.29 21.7-0.61L21.7-0.61 18.41-9.13Q17.77-10.79 16.92-11.72 16.06-12.65 14.89-13.01 13.72-13.38 11.94-13.38L11.94-13.38 8.03-13.38 8.03-0.88Q8.03 0.07 6.3 0.07L6.3 0.07 5.96 0.07ZM8.03-16.67L13.75-16.67Q15.28-16.67 16.56-17.41 17.85-18.14 18.59-19.37 19.34-20.61 19.34-22L19.34-22Q19.34-24.56 17.77-25.82 16.21-27.08 13.45-27.08L13.45-27.08 8.03-27.08 8.03-16.67ZM39.52 0.24Q34.13 0.24 31.5-2.58 28.88-5.4 28.88-11.21L28.88-11.21Q28.88-16.97 31.44-19.96 34.01-22.95 38.99-22.95L38.99-22.95Q43.43-22.95 45.69-20.07 47.95-17.19 47.95-11.62L47.95-11.62Q47.95-11.38 47.69-10.95 47.43-10.52 47.08-10.19 46.73-9.86 46.48-9.86L46.48-9.86 32.79-9.86Q33.05-6.23 34.65-4.55 36.25-2.88 39.48-2.88L39.48-2.88Q41.28-2.88 42.59-3.32 43.89-3.76 45.11-4.39L45.11-4.39Q45.24-4.44 45.48-4.57 45.73-4.69 45.82-4.69L45.82-4.69Q46.09-4.69 46.45-4.26 46.8-3.83 47.06-3.31 47.31-2.78 47.31-2.54L47.31-2.54Q47.31-2 46.24-1.34 45.16-0.68 43.37-0.22 41.57 0.24 39.52 0.24L39.52 0.24ZM32.79-12.99L44.06-12.99Q44.06-19.82 38.86-19.82L38.86-19.82Q33.27-19.82 32.79-12.99L32.79-12.99ZM58.32 0.42Q56.49 0.42 54.9-0.05 53.32-0.51 52.38-1.18 51.44-1.86 51.44-2.37L51.44-2.37Q51.44-2.61 51.69-3.15 51.95-3.69 52.3-4.11 52.66-4.54 52.95-4.54L52.95-4.54Q53.02-4.54 53.39-4.3L53.39-4.3Q54.37-3.66 55.45-3.22 56.54-2.78 58.05-2.78L58.05-2.78Q62.3-2.78 62.3-6.3L62.3-6.3Q62.3-7.3 61.9-7.98 61.49-8.67 60.55-9.19 59.61-9.72 57.98-10.21L57.98-10.21Q55.63-10.89 54.33-11.77 53.02-12.65 52.49-13.83 51.95-15.01 51.95-16.7L51.95-16.7Q51.95-18.51 52.86-19.95 53.78-21.39 55.43-22.19 57.08-23 59.15-23L59.15-23Q60.59-23 61.92-22.73 63.25-22.46 64.07-22.03 64.89-21.61 64.89-21.14L64.89-21.14Q64.89-20.8 64.66-20.23 64.42-19.65 64.08-19.23 63.74-18.8 63.47-18.8L63.47-18.8Q63.42-18.8 62.86-19.1 62.3-19.41 61.43-19.67 60.57-19.92 59.52-19.92L59.52-19.92Q57.86-19.92 56.77-19.18 55.68-18.43 55.68-17.19L55.68-17.19Q55.68-15.72 56.46-14.84 57.25-13.96 59.05-13.4L59.05-13.4Q61.84-12.55 63.3-11.69 64.77-10.84 65.39-9.61 66.01-8.37 66.01-6.37L66.01-6.37Q66.01-4.47 64.99-2.92 63.96-1.37 62.2-0.48 60.44 0.42 58.32 0.42L58.32 0.42ZM80.85 0.24Q75.46 0.24 72.83-2.58 70.21-5.4 70.21-11.21L70.21-11.21Q70.21-16.97 72.77-19.96 75.33-22.95 80.31-22.95L80.31-22.95Q84.76-22.95 87.02-20.07 89.27-17.19 89.27-11.62L89.27-11.62Q89.27-11.38 89.02-10.95 88.76-10.52 88.41-10.19 88.05-9.86 87.81-9.86L87.81-9.86 74.11-9.86Q74.38-6.23 75.98-4.55 77.58-2.88 80.8-2.88L80.8-2.88Q82.61-2.88 83.92-3.32 85.22-3.76 86.44-4.39L86.44-4.39Q86.56-4.44 86.81-4.57 87.05-4.69 87.15-4.69L87.15-4.69Q87.42-4.69 87.77-4.26 88.13-3.83 88.38-3.31 88.64-2.78 88.64-2.54L88.64-2.54Q88.64-2 87.57-1.34 86.49-0.68 84.7-0.22 82.9 0.24 80.85 0.24L80.85 0.24ZM74.11-12.99L85.39-12.99Q85.39-19.82 80.19-19.82L80.19-19.82Q74.6-19.82 74.11-12.99L74.11-12.99ZM100.77 0.24Q97.45 0.24 95.4-1.39 93.35-3.03 93.35-6.25L93.35-6.25Q93.35-9.64 95.42-11.36 97.5-13.09 100.49-13.59 103.48-14.09 107.75-14.16L107.75-14.16 107.75-16.21Q107.75-17.85 106.64-18.84 105.53-19.82 102.99-19.82L102.99-19.82Q101.06-19.82 99.61-19.37 98.16-18.92 96.89-18.29L96.89-18.29Q96.35-18.02 96.23-18.02L96.23-18.02Q95.94-18.02 95.58-18.44 95.23-18.87 94.97-19.41 94.72-19.95 94.72-20.19L94.72-20.19Q94.72-20.75 95.88-21.41 97.04-22.07 98.92-22.51 100.8-22.95 102.85-22.95L102.85-22.95Q106.92-22.95 109.17-21.17 111.42-19.38 111.42-16.16L111.42-16.16 111.42-6.42Q111.42-3.59 111.67-2.33 111.93-1.07 111.93-0.95L111.93-0.95Q111.93-0.42 111.11-0.18 110.29 0.05 109.58 0.05L109.58 0.05Q109 0.05 108.72-0.61 108.44-1.27 108.17-2.51L108.17-2.51 108.07-3Q106.73-1.51 104.91-0.63 103.09 0.24 100.77 0.24L100.77 0.24ZM100.97-2.91Q103.12-2.91 104.63-3.69 106.14-4.47 107.75-5.91L107.75-5.91 107.75-11.04Q104.53-11.01 102.46-10.77 100.38-10.52 98.82-9.53 97.26-8.54 97.26-6.47L97.26-6.47Q97.26-4.74 98.2-3.82 99.14-2.91 100.97-2.91L100.97-2.91ZM120.54 0.07Q119.62 0.07 119.2-0.16 118.79-0.39 118.79-0.88L118.79-0.88 118.79-16.11Q118.79-18.95 118.52-20.2 118.25-21.46 118.25-21.58L118.25-21.58Q118.25-22.12 119.07-22.35 119.88-22.58 120.62-22.58L120.62-22.58Q121.2-22.58 121.5-21.96 121.79-21.34 122.01-20.21L122.01-20.21 122.13-19.7Q124.45-22.95 127.16-22.95L127.16-22.95Q128.41-22.95 129.04-22.5 129.68-22.05 129.68-21.29L129.68-21.29Q129.68-20.56 129.42-19.74 129.16-18.92 128.82-18.92L128.82-18.92Q128.65-18.92 128.21-19.07L128.21-19.07Q127.82-19.24 127.43-19.32 127.04-19.41 126.43-19.41L126.43-19.41Q125.43-19.41 124.54-18.82 123.64-18.24 123.03-17.53 122.42-16.82 122.42-16.75L122.42-16.75 122.42-0.88Q122.42-0.39 122.01-0.16 121.59 0.07 120.72 0.07L120.72 0.07 120.54 0.07ZM143.69 0.24Q138.29 0.24 135.64-2.53 132.99-5.3 132.99-11.45L132.99-11.45Q132.99-17.68 135.95-20.31 138.9-22.95 143.3-22.95L143.3-22.95Q144.93-22.95 146.44-22.67 147.96-22.39 148.89-21.92 149.81-21.46 149.81-20.95L149.81-20.95Q149.81-20.61 149.58-20.04 149.35-19.48 149.02-19.06 148.69-18.63 148.42-18.63L148.42-18.63Q148.35-18.63 148.2-18.69 148.06-18.75 147.93-18.8L147.93-18.8Q145.74-19.82 143.2-19.82L143.2-19.82Q140.19-19.82 138.56-17.86 136.92-15.89 136.92-11.55L136.92-11.55Q136.92-8.47 137.58-6.58 138.24-4.69 139.72-3.78 141.2-2.88 143.66-2.88L143.66-2.88Q146.37-2.88 148.54-4L148.54-4Q148.76-4.05 148.87-4.11 148.98-4.17 149.03-4.17L149.03-4.17Q149.3-4.17 149.64-3.76 149.99-3.34 150.24-2.81 150.5-2.27 150.5-1.95L150.5-1.95Q150.5-1.44 149.57-0.93 148.64-0.42 147.07-0.09 145.49 0.24 143.69 0.24L143.69 0.24ZM157.53 0.07Q155.79 0.07 155.79-0.88L155.79-0.88 155.79-31.69Q155.79-32.64 157.53-32.64L157.53-32.64 157.7-32.64Q159.46-32.64 159.46-31.69L159.46-31.69 159.46-19.97Q160.72-21.26 162.43-22.11 164.14-22.95 166.07-22.95L166.07-22.95Q168.81-22.95 170.89-21.41 172.98-19.87 172.98-15.94L172.98-15.94 172.98-0.88Q172.98 0.07 171.25 0.07L171.25 0.07 171.08 0.07Q169.32 0.07 169.32-0.88L169.32-0.88 169.32-15.58Q169.32-17.55 168.2-18.68 167.07-19.8 164.9-19.8L164.9-19.8Q163.46-19.8 162.25-19.12 161.04-18.43 160.25-17.64 159.46-16.85 159.46-16.75L159.46-16.75 159.46-0.88Q159.46 0.07 157.7 0.07L157.7 0.07 157.53 0.07ZM182.28 0.07Q180.52 0.07 180.52-0.88L180.52-0.88 180.52-29.08Q180.52-29.76 180.84-30.07 181.16-30.37 181.84-30.37L181.84-30.37 189.14-30.37Q194.34-30.37 196.96-28.54 199.59-26.71 199.59-22.71L199.59-22.71Q199.59-20 198.28-18.15 196.98-16.31 194.61-15.38L194.61-15.38 194.61-15.21Q195.88-14.77 196.7-13.51 197.51-12.26 198.52-9.79L198.52-9.79 201.91-1.22Q202.03-0.78 202.03-0.61L202.03-0.61Q202.03 0.07 200.2 0.07L200.2 0.07 199.76 0.07Q199.1 0.07 198.63-0.11 198.15-0.29 198.03-0.61L198.03-0.61 194.73-9.13Q194.1-10.79 193.24-11.72 192.39-12.65 191.22-13.01 190.04-13.38 188.26-13.38L188.26-13.38 184.36-13.38 184.36-0.88Q184.36 0.07 182.62 0.07L182.62 0.07 182.28 0.07ZM184.36-16.67L190.07-16.67Q191.61-16.67 192.89-17.41 194.17-18.14 194.91-19.37 195.66-20.61 195.66-22L195.66-22Q195.66-24.56 194.1-25.82 192.53-27.08 189.77-27.08L189.77-27.08 184.36-27.08 184.36-16.67ZM205.2 0.07Q204.23 0.07 203.79-0.11 203.35-0.29 203.35-0.66L203.35-0.66Q203.35-0.83 203.47-1.25L203.47-1.25 213.75-29.79Q213.99-30.49 215.48-30.49L215.48-30.49 216.75-30.49Q218.24-30.49 218.48-29.79L218.48-29.79 228.76-1.22Q228.88-0.95 228.88-0.66L228.88-0.66Q228.88 0.07 227.05 0.07L227.05 0.07 226.69 0.07Q225.17 0.07 224.93-0.61L224.93-0.61 222.39-7.74 209.65-7.74 207.16-0.61Q206.94 0.07 205.42 0.07L205.42 0.07 205.2 0.07ZM210.84-11.04L221.22-11.04 216.68-23.95Q216.48-24.49 216.36-25.17 216.24-25.85 216.14-26.49L216.14-26.49 216.04-26.49Q215.75-24.85 215.38-23.95L215.38-23.95 210.84-11.04ZM245.29 0.24Q238.74 0.24 235.33-3.53 231.91-7.3 231.91-14.94L231.91-14.94Q231.91-30.66 245.95-30.66L245.95-30.66Q248-30.66 249.93-30.24 251.85-29.81 253.05-29.17 254.25-28.54 254.25-27.95L254.25-27.95Q254.25-27.59 253.99-26.98 253.73-26.37 253.39-25.9 253.05-25.44 252.78-25.44L252.78-25.44Q252.66-25.44 252.1-25.76L252.1-25.76Q250.83-26.44 249.44-26.9 248.05-27.37 246.04-27.37L246.04-27.37Q240.53-27.37 238.18-24.33 235.84-21.29 235.84-15.33L235.84-15.33Q235.84-9.72 238.02-6.38 240.21-3.05 245.58-3.05L245.58-3.05Q247.22-3.05 248.74-3.21 250.27-3.37 251.17-3.61L251.17-3.61 251.17-12.38 246.09-12.38Q245.63-12.38 245.42-12.68 245.21-12.99 245.21-13.67L245.21-13.67 245.21-14.38Q245.21-15.06 245.42-15.37 245.63-15.67 246.09-15.67L246.09-15.67 253.69-15.67Q254.37-15.67 254.69-15.37 255-15.06 255-14.38L255-14.38 255-2.88Q255-1.2 252.27-0.48 249.54 0.24 245.29 0.24L245.29 0.24Z" opacity="1" transform="matrix(1,0,0,1,0,0)" fill="#000000" class="wordmark-text-0" data-fill-palette-color="primary" id="text-0"></path></svg></g></svg></g></svg></g></svg></g><g><svg viewBox="0 0 154.09070025245452 136.46371631691648" height="136.46371631691648" width="154.09070025245452"><g><svg xmlns="http://www.w3.org/2000/svg" xmlnsXlink="http://www.w3.org/1999/xlink" version="1.1" x="0" y="0" viewBox="25.899860075925623 52.2 460.25013992407435 407.6004874176015" style="enable-background:new 0 0 512 512;" xmlSpace="preserve" height="136.46371631691648" width="154.09070025245452" class="icon-icon-0" data-fill-palette-color="accent" id="icon-0"><g fill="#000000" data-fill-palette-color="accent"><path d="M376.8 262C379.7 278.3 393.9 290.2 410.5 290.2 429.4 290.2 444.8 274.9 444.8 256S429.5 221.7 410.6 221.7C394 221.7 379.8 233.6 376.9 249.9H135.4C132.5 233.6 118.3 221.7 101.7 221.7 82.8 221.7 67.5 237 67.5 255.9S82.8 290.1 101.7 290.1C110.8 290.1 119.5 286.5 125.9 280.1 130.9 275.2 134.2 268.8 135.4 261.9H376.8z" fill="#000000" data-fill-palette-color="accent"></path><path d="M476.1 325.7C462.7 312.3 441 312.3 427.6 325.7 422.6 330.7 419.3 337.1 418.1 344H361.9C349.3 343.9 339.1 333.6 339.1 321 339.1 301.8 323.6 286.1 304.3 286H207.7C188.5 286.1 172.9 301.8 172.9 321 172.9 333.6 162.7 343.9 150.1 344H94C92.8 337.1 89.5 330.7 84.5 325.7 71.1 312.4 49.5 312.5 36.2 325.8 22.9 339.2 23 360.8 36.3 374.1 49.6 387.3 71.1 387.3 84.4 374.1 89.4 369.2 92.7 362.9 93.9 356H150.1C169.3 355.9 184.9 340.2 184.9 321 184.9 308.4 195.1 298.1 207.7 298H304.3C316.9 298.1 327.1 308.4 327.1 321 327.1 340.2 342.6 355.9 361.9 356H418.1C419.3 362.9 422.6 369.2 427.6 374.1 441 387.5 462.7 387.5 476.1 374.1 489.4 360.8 489.5 339.1 476.1 325.7" fill="#000000" data-fill-palette-color="accent"></path><path d="M391.6 391.3C382.5 391.3 373.7 394.9 367.3 401.4 361.5 407.2 358 414.9 357.4 423H349.3C336.6 422.9 325.4 415 321 403.1L302.3 352.6A42.53 42.53 0 0 0 262.7 325H249.7C232.1 325 216.3 336 210.1 352.5L191.4 403.1C187 415 175.7 422.9 163.1 423H155C153.5 404.3 137.1 390.4 118.4 391.9S85.8 409.8 87.3 428.5 105.2 461.1 123.9 459.6C131.9 459 139.4 455.5 145.1 449.8 149.2 445.6 152.2 440.5 153.8 435H163C180.7 434.9 196.4 423.9 202.6 407.3L221.3 356.8C225.7 345 237 337.1 249.6 337.1H262.6C275.2 337.1 286.5 344.9 290.9 356.8L309.6 407.4C315.8 424 331.5 435 349.2 435.1H358.4C360.2 440.6 363.1 445.7 367 449.9V449.8C374 456.3 382.1 459.8 391.3 459.8 410.2 459.9 425.6 444.6 425.6 425.7 425.7 406.7 410.5 391.4 391.6 391.3" fill="#000000" data-fill-palette-color="accent"></path><path d="M84.4 186.4L84.5 186.3C89.5 181.3 92.8 174.9 94 168H150.2C162.8 168.1 173 178.4 173 191 173 210.2 188.5 225.9 207.8 226H304.4C323.6 225.9 339.2 210.2 339.2 191 339.2 178.4 349.4 168.1 362 168H418.2C419.4 174.9 422.7 181.3 427.7 186.3 441.1 199.7 462.8 199.7 476.1 186.3 489.5 172.9 489.5 151.2 476.1 137.9 462.7 124.5 441.1 124.5 427.7 137.9 422.7 142.8 419.4 149.1 418.2 156H362C342.8 156.1 327.2 171.8 327.2 191 327.2 203.6 317 213.9 304.4 214H207.8C195.2 213.9 185 203.6 185 191 185 171.8 169.5 156.1 150.2 156H94C92.8 149.1 89.5 142.8 84.5 137.9 71.1 124.5 49.4 124.4 36 137.8S22.5 172.9 35.9 186.3 71 199.8 84.4 186.4" fill="#000000" data-fill-palette-color="accent"></path><path d="M144.9 110.6C150.7 104.8 154.2 97.2 154.8 89H162.9C175.6 89.1 186.8 97 191.2 108.9L209.9 159.4A42.53 42.53 0 0 0 249.5 187H262.5C280.1 187 295.9 176 302.1 159.5L320.8 108.9C325.2 97 336.5 89.1 349.1 89H357.2C358.7 107.7 375.1 121.6 393.8 120.1S426.4 102.2 424.9 83.5 407 50.9 388.3 52.4C380.3 53 372.8 56.5 367.1 62.2 363 66.4 360 71.5 358.4 77H349.2C331.5 77.1 315.8 88.1 309.6 104.7L290.9 155.2C286.5 167 275.2 174.9 262.6 174.9H249.6C237 174.9 225.7 167.1 221.3 155.2L202.6 104.6C196.4 88 180.7 77 163 76.9H153.8C152 71.4 149.1 66.3 145.2 62.1V62.2C138.2 55.7 130.1 52.2 120.9 52.2 111.8 52.2 103 55.8 96.6 62.3 83.3 75.7 83.3 97.3 96.7 110.7 110 124 131.6 124 144.9 110.6" fill="#000000" data-fill-palette-color="accent"></path></g></svg></g></svg></g></svg></g><defs></defs></svg><rect width="395.52" height="96.05369753079101" fill="none" stroke="none" visibility="hidden"></rect></g></svg></g></svg>